<mxfile host="Electron" modified="2023-12-19T07:18:36.958Z" agent="Mozilla/5.0 (Windows NT 10.0; Win64; x64) AppleWebKit/537.36 (KHTML, like Gecko) draw.io/22.0.2 Chrome/114.0.5735.289 Electron/25.8.4 Safari/537.36" etag="a22pmzjyU3wwyzraA5u0" version="22.0.2" type="device" pages="2">
  <diagram name="Page-1" id="pvWYKL_-Vn22JHU6CKeb">
    <mxGraphModel dx="864" dy="516" grid="1" gridSize="10" guides="1" tooltips="1" connect="1" arrows="1" fold="1" page="1" pageScale="1" pageWidth="827" pageHeight="1169" math="0" shadow="0">
      <root>
        <mxCell id="0" />
        <mxCell id="1" parent="0" />
        <mxCell id="eLumcGsLeYAGEEUttIY6-9" style="edgeStyle=orthogonalEdgeStyle;rounded=0;orthogonalLoop=1;jettySize=auto;html=1;exitX=0.5;exitY=1;exitDx=0;exitDy=0;exitPerimeter=0;entryX=0.5;entryY=0;entryDx=0;entryDy=0;" parent="1" source="gNGJrF6s9Z1wAi_ttvu8-1" target="oYzVZRyx_BvMzg4kwmhu-1" edge="1">
          <mxGeometry relative="1" as="geometry">
            <mxPoint x="375" y="130" as="targetPoint" />
          </mxGeometry>
        </mxCell>
        <mxCell id="gNGJrF6s9Z1wAi_ttvu8-1" value="START" style="strokeWidth=2;html=1;shape=mxgraph.flowchart.terminator;whiteSpace=wrap;" parent="1" vertex="1">
          <mxGeometry x="325" y="40" width="100" height="60" as="geometry" />
        </mxCell>
        <mxCell id="eLumcGsLeYAGEEUttIY6-5" style="edgeStyle=orthogonalEdgeStyle;rounded=0;orthogonalLoop=1;jettySize=auto;html=1;exitX=0.5;exitY=1;exitDx=0;exitDy=0;entryX=0.5;entryY=0;entryDx=0;entryDy=0;" parent="1" source="eLumcGsLeYAGEEUttIY6-1" target="eLumcGsLeYAGEEUttIY6-2" edge="1">
          <mxGeometry relative="1" as="geometry" />
        </mxCell>
        <mxCell id="eLumcGsLeYAGEEUttIY6-1" value="def menu()" style="shape=process;whiteSpace=wrap;html=1;backgroundOutline=1;" parent="1" vertex="1">
          <mxGeometry x="320" y="280" width="120" height="60" as="geometry" />
        </mxCell>
        <mxCell id="mH-LQGyQvYx6r8I2opjq-2" style="edgeStyle=orthogonalEdgeStyle;rounded=0;orthogonalLoop=1;jettySize=auto;html=1;exitX=0.5;exitY=1;exitDx=0;exitDy=0;entryX=0.5;entryY=0;entryDx=0;entryDy=0;" parent="1" source="eLumcGsLeYAGEEUttIY6-2" target="mH-LQGyQvYx6r8I2opjq-1" edge="1">
          <mxGeometry relative="1" as="geometry" />
        </mxCell>
        <mxCell id="eLumcGsLeYAGEEUttIY6-2" value="loop = True" style="rounded=1;whiteSpace=wrap;html=1;" parent="1" vertex="1">
          <mxGeometry x="320" y="360" width="120" height="60" as="geometry" />
        </mxCell>
        <mxCell id="02wPXwECCIyAUw_EmtUw-2" style="edgeStyle=orthogonalEdgeStyle;rounded=0;orthogonalLoop=1;jettySize=auto;html=1;exitX=0.5;exitY=1;exitDx=0;exitDy=0;entryX=0.5;entryY=0;entryDx=0;entryDy=0;" parent="1" source="eLumcGsLeYAGEEUttIY6-7" target="eLumcGsLeYAGEEUttIY6-12" edge="1">
          <mxGeometry relative="1" as="geometry" />
        </mxCell>
        <mxCell id="eLumcGsLeYAGEEUttIY6-7" value="&lt;div style=&quot;&quot;&gt;os.system(&quot;cls&quot;)&lt;/div&gt;" style="rounded=1;whiteSpace=wrap;html=1;align=center;" parent="1" vertex="1">
          <mxGeometry x="310" y="560" width="140" height="40" as="geometry" />
        </mxCell>
        <mxCell id="eLumcGsLeYAGEEUttIY6-16" style="edgeStyle=orthogonalEdgeStyle;rounded=0;orthogonalLoop=1;jettySize=auto;html=1;exitX=0.5;exitY=1;exitDx=0;exitDy=0;entryX=0.5;entryY=0;entryDx=0;entryDy=0;" parent="1" source="eLumcGsLeYAGEEUttIY6-12" target="eLumcGsLeYAGEEUttIY6-15" edge="1">
          <mxGeometry relative="1" as="geometry" />
        </mxCell>
        <mxCell id="eLumcGsLeYAGEEUttIY6-12" value="PRINT&lt;br&gt;&lt;div&gt;&quot;ABC Retail Sdn Bhd&quot;&lt;/div&gt;&lt;div&gt;&lt;span style=&quot;background-color: initial;&quot;&gt;&quot;&amp;lt;1&amp;gt; Item Maintenance&quot;&lt;/span&gt;&lt;br&gt;&lt;/div&gt;&lt;div&gt;&quot;&amp;lt;2&amp;gt; Stock/inventory Management&quot;&lt;/div&gt;&lt;div&gt;&quot;&amp;lt;3&amp;gt; Membership Maintainence&quot;&lt;/div&gt;&lt;div&gt;&quot;&amp;lt;4&amp;gt; Sales&quot;&lt;/div&gt;&lt;div&gt;&amp;nbsp;&quot;&amp;lt;5&amp;gt; Reports&quot;&lt;/div&gt;&lt;div&gt;&quot;&amp;lt;Q&amp;gt;uit&quot;&lt;/div&gt;" style="shape=parallelogram;perimeter=parallelogramPerimeter;whiteSpace=wrap;html=1;fixedSize=1;" parent="1" vertex="1">
          <mxGeometry x="220" y="620" width="320" height="190" as="geometry" />
        </mxCell>
        <mxCell id="ppaTgGI0rBOgeJ15r75p-4" style="edgeStyle=orthogonalEdgeStyle;rounded=0;orthogonalLoop=1;jettySize=auto;html=1;exitX=0.5;exitY=1;exitDx=0;exitDy=0;entryX=0.5;entryY=0;entryDx=0;entryDy=0;" edge="1" parent="1" source="eLumcGsLeYAGEEUttIY6-15" target="ppaTgGI0rBOgeJ15r75p-1">
          <mxGeometry relative="1" as="geometry" />
        </mxCell>
        <mxCell id="eLumcGsLeYAGEEUttIY6-15" value="INPUT&lt;br&gt;Opt" style="shape=parallelogram;perimeter=parallelogramPerimeter;whiteSpace=wrap;html=1;fixedSize=1;" parent="1" vertex="1">
          <mxGeometry x="320" y="830" width="120" height="60" as="geometry" />
        </mxCell>
        <mxCell id="mH-LQGyQvYx6r8I2opjq-4" style="edgeStyle=orthogonalEdgeStyle;rounded=0;orthogonalLoop=1;jettySize=auto;html=1;exitX=0.5;exitY=1;exitDx=0;exitDy=0;" parent="1" source="mH-LQGyQvYx6r8I2opjq-1" target="eLumcGsLeYAGEEUttIY6-7" edge="1">
          <mxGeometry relative="1" as="geometry" />
        </mxCell>
        <mxCell id="qaITigZ-z0Xobd-USZ8p-2" style="edgeStyle=orthogonalEdgeStyle;rounded=0;orthogonalLoop=1;jettySize=auto;html=1;exitX=1;exitY=0.5;exitDx=0;exitDy=0;" parent="1" source="mH-LQGyQvYx6r8I2opjq-1" target="02wPXwECCIyAUw_EmtUw-1" edge="1">
          <mxGeometry relative="1" as="geometry" />
        </mxCell>
        <mxCell id="mH-LQGyQvYx6r8I2opjq-1" value="while loop:" style="rhombus;whiteSpace=wrap;html=1;" parent="1" vertex="1">
          <mxGeometry x="290" y="440" width="180" height="80" as="geometry" />
        </mxCell>
        <mxCell id="oYzVZRyx_BvMzg4kwmhu-1" value="import&amp;nbsp; os&lt;br style=&quot;border-color: var(--border-color);&quot;&gt;&lt;div style=&quot;border-color: var(--border-color);&quot;&gt;import Maintenance as main&lt;/div&gt;&lt;div style=&quot;border-color: var(--border-color);&quot;&gt;import membership as member&lt;/div&gt;&lt;div style=&quot;border-color: var(--border-color);&quot;&gt;import StockManage as stock&lt;/div&gt;&lt;div style=&quot;border-color: var(--border-color);&quot;&gt;import Sales&lt;/div&gt;&lt;div style=&quot;border-color: var(--border-color);&quot;&gt;import report&lt;/div&gt;" style="rounded=1;whiteSpace=wrap;html=1;" parent="1" vertex="1">
          <mxGeometry x="280" y="150" width="190" height="100" as="geometry" />
        </mxCell>
        <mxCell id="oYzVZRyx_BvMzg4kwmhu-2" style="edgeStyle=orthogonalEdgeStyle;rounded=0;orthogonalLoop=1;jettySize=auto;html=1;exitX=0.5;exitY=1;exitDx=0;exitDy=0;entryX=0.433;entryY=0;entryDx=0;entryDy=0;entryPerimeter=0;" parent="1" source="oYzVZRyx_BvMzg4kwmhu-1" target="eLumcGsLeYAGEEUttIY6-1" edge="1">
          <mxGeometry relative="1" as="geometry" />
        </mxCell>
        <mxCell id="oYzVZRyx_BvMzg4kwmhu-3" value="True" style="text;html=1;align=center;verticalAlign=middle;resizable=0;points=[];autosize=1;strokeColor=none;fillColor=none;" parent="1" vertex="1">
          <mxGeometry x="315" y="528" width="50" height="30" as="geometry" />
        </mxCell>
        <mxCell id="02wPXwECCIyAUw_EmtUw-1" value="END" style="strokeWidth=2;html=1;shape=mxgraph.flowchart.terminator;whiteSpace=wrap;" parent="1" vertex="1">
          <mxGeometry x="510" y="528" width="100" height="60" as="geometry" />
        </mxCell>
        <mxCell id="qaITigZ-z0Xobd-USZ8p-3" value="False" style="text;html=1;align=center;verticalAlign=middle;resizable=0;points=[];autosize=1;strokeColor=none;fillColor=none;" parent="1" vertex="1">
          <mxGeometry x="475" y="438" width="50" height="30" as="geometry" />
        </mxCell>
        <mxCell id="ppaTgGI0rBOgeJ15r75p-1" value="&lt;font style=&quot;font-size: 36px;&quot;&gt;1&lt;/font&gt;" style="shape=offPageConnector;whiteSpace=wrap;html=1;" vertex="1" parent="1">
          <mxGeometry x="355" y="910" width="50" height="60" as="geometry" />
        </mxCell>
        <mxCell id="ppaTgGI0rBOgeJ15r75p-3" style="edgeStyle=orthogonalEdgeStyle;rounded=0;orthogonalLoop=1;jettySize=auto;html=1;exitX=0.5;exitY=1;exitDx=0;exitDy=0;entryX=0;entryY=0.5;entryDx=0;entryDy=0;" edge="1" parent="1" source="ppaTgGI0rBOgeJ15r75p-2" target="mH-LQGyQvYx6r8I2opjq-1">
          <mxGeometry relative="1" as="geometry">
            <Array as="points">
              <mxPoint x="380" y="1060" />
              <mxPoint x="200" y="1060" />
              <mxPoint x="200" y="480" />
            </Array>
          </mxGeometry>
        </mxCell>
        <mxCell id="ppaTgGI0rBOgeJ15r75p-2" value="&lt;font style=&quot;font-size: 36px;&quot;&gt;2&lt;/font&gt;" style="shape=offPageConnector;whiteSpace=wrap;html=1;" vertex="1" parent="1">
          <mxGeometry x="355" y="980" width="50" height="60" as="geometry" />
        </mxCell>
      </root>
    </mxGraphModel>
  </diagram>
  <diagram id="THpB6Vwanwu9E2xA2fa-" name="Page-2">
    <mxGraphModel dx="1016" dy="1776" grid="1" gridSize="10" guides="1" tooltips="1" connect="1" arrows="1" fold="1" page="1" pageScale="1" pageWidth="827" pageHeight="1169" math="0" shadow="0">
      <root>
        <mxCell id="0" />
        <mxCell id="1" parent="0" />
        <mxCell id="lRWClCMstVf7WPKX0AIL-4" value="True" style="text;html=1;strokeColor=none;fillColor=none;align=center;verticalAlign=middle;whiteSpace=wrap;rounded=0;" parent="1" vertex="1">
          <mxGeometry x="150" y="170" width="60" height="30" as="geometry" />
        </mxCell>
        <mxCell id="WHeVGBCGnXkhvYLiNTyB-8" style="edgeStyle=orthogonalEdgeStyle;rounded=0;orthogonalLoop=1;jettySize=auto;html=1;exitX=0.5;exitY=1;exitDx=0;exitDy=0;entryX=0.5;entryY=0;entryDx=0;entryDy=0;" edge="1" parent="1" source="lRWClCMstVf7WPKX0AIL-10" target="zAQkPUMZ2etP7mfMLIDu-18">
          <mxGeometry relative="1" as="geometry" />
        </mxCell>
        <mxCell id="lRWClCMstVf7WPKX0AIL-10" value="main.ItemMain()" style="rounded=1;whiteSpace=wrap;html=1;" parent="1" vertex="1">
          <mxGeometry y="330" width="120" height="60" as="geometry" />
        </mxCell>
        <mxCell id="lRWClCMstVf7WPKX0AIL-11" value="stock.InvManag()" style="rounded=1;whiteSpace=wrap;html=1;" parent="1" vertex="1">
          <mxGeometry x="100" y="420" width="120" height="60" as="geometry" />
        </mxCell>
        <mxCell id="zAQkPUMZ2etP7mfMLIDu-12" style="edgeStyle=orthogonalEdgeStyle;rounded=0;orthogonalLoop=1;jettySize=auto;html=1;exitX=0.25;exitY=1;exitDx=0;exitDy=0;entryX=0.5;entryY=0;entryDx=0;entryDy=0;" parent="1" source="lRWClCMstVf7WPKX0AIL-13" target="zAQkPUMZ2etP7mfMLIDu-11" edge="1">
          <mxGeometry relative="1" as="geometry">
            <mxPoint x="280" y="950" as="targetPoint" />
          </mxGeometry>
        </mxCell>
        <mxCell id="lRWClCMstVf7WPKX0AIL-13" value="member.memberM()" style="rounded=1;whiteSpace=wrap;html=1;" parent="1" vertex="1">
          <mxGeometry x="205" y="550" width="120" height="60" as="geometry" />
        </mxCell>
        <mxCell id="zAQkPUMZ2etP7mfMLIDu-8" style="edgeStyle=orthogonalEdgeStyle;rounded=0;orthogonalLoop=1;jettySize=auto;html=1;exitX=0.5;exitY=1;exitDx=0;exitDy=0;entryX=0.5;entryY=0;entryDx=0;entryDy=0;" parent="1" source="lRWClCMstVf7WPKX0AIL-15" target="zAQkPUMZ2etP7mfMLIDu-6" edge="1">
          <mxGeometry relative="1" as="geometry" />
        </mxCell>
        <mxCell id="lRWClCMstVf7WPKX0AIL-15" value="Sales.sale()" style="rounded=1;whiteSpace=wrap;html=1;" parent="1" vertex="1">
          <mxGeometry x="305" y="670" width="120" height="60" as="geometry" />
        </mxCell>
        <mxCell id="zAQkPUMZ2etP7mfMLIDu-4" style="edgeStyle=orthogonalEdgeStyle;rounded=0;orthogonalLoop=1;jettySize=auto;html=1;exitX=0.5;exitY=1;exitDx=0;exitDy=0;entryX=0;entryY=0.5;entryDx=0;entryDy=0;" parent="1" source="lRWClCMstVf7WPKX0AIL-17" target="zAQkPUMZ2etP7mfMLIDu-3" edge="1">
          <mxGeometry relative="1" as="geometry" />
        </mxCell>
        <mxCell id="lRWClCMstVf7WPKX0AIL-17" value="report.report()" style="rounded=1;whiteSpace=wrap;html=1;" parent="1" vertex="1">
          <mxGeometry x="420" y="750" width="120" height="60" as="geometry" />
        </mxCell>
        <mxCell id="zAQkPUMZ2etP7mfMLIDu-5" style="edgeStyle=orthogonalEdgeStyle;rounded=0;orthogonalLoop=1;jettySize=auto;html=1;exitX=0.5;exitY=1;exitDx=0;exitDy=0;entryX=1;entryY=0.5;entryDx=0;entryDy=0;" parent="1" source="lRWClCMstVf7WPKX0AIL-18" target="zAQkPUMZ2etP7mfMLIDu-3" edge="1">
          <mxGeometry relative="1" as="geometry" />
        </mxCell>
        <mxCell id="lRWClCMstVf7WPKX0AIL-18" value="PRINT&lt;br&gt;&quot;Invalid Input&quot;" style="shape=parallelogram;perimeter=parallelogramPerimeter;whiteSpace=wrap;html=1;fixedSize=1;" parent="1" vertex="1">
          <mxGeometry x="644" y="750" width="180" height="60" as="geometry" />
        </mxCell>
        <mxCell id="UVfGVoTlfthyFdkSEK8p-11" style="edgeStyle=orthogonalEdgeStyle;rounded=0;orthogonalLoop=1;jettySize=auto;html=1;exitX=0;exitY=0.5;exitDx=0;exitDy=0;entryX=0.5;entryY=0;entryDx=0;entryDy=0;" parent="1" source="XQDPp6GBqCCkRfI6v3cZ-1" target="XQDPp6GBqCCkRfI6v3cZ-3" edge="1">
          <mxGeometry relative="1" as="geometry" />
        </mxCell>
        <mxCell id="UVfGVoTlfthyFdkSEK8p-18" style="edgeStyle=orthogonalEdgeStyle;rounded=0;orthogonalLoop=1;jettySize=auto;html=1;exitX=1;exitY=0.5;exitDx=0;exitDy=0;entryX=0.5;entryY=0;entryDx=0;entryDy=0;" parent="1" source="XQDPp6GBqCCkRfI6v3cZ-1" target="UVfGVoTlfthyFdkSEK8p-17" edge="1">
          <mxGeometry relative="1" as="geometry" />
        </mxCell>
        <mxCell id="XQDPp6GBqCCkRfI6v3cZ-1" value="if digit" style="rhombus;whiteSpace=wrap;html=1;" parent="1" vertex="1">
          <mxGeometry x="200" y="150" width="170" height="80" as="geometry" />
        </mxCell>
        <mxCell id="XQDPp6GBqCCkRfI6v3cZ-12" style="edgeStyle=orthogonalEdgeStyle;rounded=0;orthogonalLoop=1;jettySize=auto;html=1;exitX=1;exitY=0.5;exitDx=0;exitDy=0;" parent="1" source="XQDPp6GBqCCkRfI6v3cZ-3" target="XQDPp6GBqCCkRfI6v3cZ-4" edge="1">
          <mxGeometry relative="1" as="geometry" />
        </mxCell>
        <mxCell id="UVfGVoTlfthyFdkSEK8p-4" style="edgeStyle=orthogonalEdgeStyle;rounded=0;orthogonalLoop=1;jettySize=auto;html=1;exitX=0;exitY=0.5;exitDx=0;exitDy=0;entryX=0.5;entryY=0;entryDx=0;entryDy=0;" parent="1" source="XQDPp6GBqCCkRfI6v3cZ-3" target="lRWClCMstVf7WPKX0AIL-10" edge="1">
          <mxGeometry relative="1" as="geometry" />
        </mxCell>
        <mxCell id="XQDPp6GBqCCkRfI6v3cZ-3" value="if Opt == &quot;1&quot;:" style="rhombus;whiteSpace=wrap;html=1;" parent="1" vertex="1">
          <mxGeometry x="80" y="230" width="170" height="80" as="geometry" />
        </mxCell>
        <mxCell id="XQDPp6GBqCCkRfI6v3cZ-14" style="edgeStyle=orthogonalEdgeStyle;rounded=0;orthogonalLoop=1;jettySize=auto;html=1;exitX=1;exitY=0.5;exitDx=0;exitDy=0;entryX=0.5;entryY=0;entryDx=0;entryDy=0;" parent="1" source="XQDPp6GBqCCkRfI6v3cZ-4" target="XQDPp6GBqCCkRfI6v3cZ-5" edge="1">
          <mxGeometry relative="1" as="geometry" />
        </mxCell>
        <mxCell id="WHeVGBCGnXkhvYLiNTyB-2" style="edgeStyle=orthogonalEdgeStyle;rounded=0;orthogonalLoop=1;jettySize=auto;html=1;exitX=0;exitY=0.5;exitDx=0;exitDy=0;entryX=0.5;entryY=0;entryDx=0;entryDy=0;" edge="1" parent="1" source="XQDPp6GBqCCkRfI6v3cZ-4" target="lRWClCMstVf7WPKX0AIL-11">
          <mxGeometry relative="1" as="geometry" />
        </mxCell>
        <mxCell id="XQDPp6GBqCCkRfI6v3cZ-4" value="elif Opt == &quot;2&quot;:" style="rhombus;whiteSpace=wrap;html=1;" parent="1" vertex="1">
          <mxGeometry x="190" y="300" width="170" height="80" as="geometry" />
        </mxCell>
        <mxCell id="XQDPp6GBqCCkRfI6v3cZ-17" style="edgeStyle=orthogonalEdgeStyle;rounded=0;orthogonalLoop=1;jettySize=auto;html=1;exitX=1;exitY=0.5;exitDx=0;exitDy=0;" parent="1" source="XQDPp6GBqCCkRfI6v3cZ-5" target="XQDPp6GBqCCkRfI6v3cZ-6" edge="1">
          <mxGeometry relative="1" as="geometry" />
        </mxCell>
        <mxCell id="UVfGVoTlfthyFdkSEK8p-7" style="edgeStyle=orthogonalEdgeStyle;rounded=0;orthogonalLoop=1;jettySize=auto;html=1;exitX=0;exitY=0.5;exitDx=0;exitDy=0;entryX=0.5;entryY=0;entryDx=0;entryDy=0;" parent="1" source="XQDPp6GBqCCkRfI6v3cZ-5" target="lRWClCMstVf7WPKX0AIL-13" edge="1">
          <mxGeometry relative="1" as="geometry" />
        </mxCell>
        <mxCell id="XQDPp6GBqCCkRfI6v3cZ-5" value="elif Opt == &quot;3&quot;:" style="rhombus;whiteSpace=wrap;html=1;" parent="1" vertex="1">
          <mxGeometry x="299" y="440" width="170" height="80" as="geometry" />
        </mxCell>
        <mxCell id="XQDPp6GBqCCkRfI6v3cZ-19" style="edgeStyle=orthogonalEdgeStyle;rounded=0;orthogonalLoop=1;jettySize=auto;html=1;exitX=1;exitY=0.5;exitDx=0;exitDy=0;entryX=0.5;entryY=0;entryDx=0;entryDy=0;" parent="1" source="XQDPp6GBqCCkRfI6v3cZ-6" target="XQDPp6GBqCCkRfI6v3cZ-7" edge="1">
          <mxGeometry relative="1" as="geometry" />
        </mxCell>
        <mxCell id="UVfGVoTlfthyFdkSEK8p-8" style="edgeStyle=orthogonalEdgeStyle;rounded=0;orthogonalLoop=1;jettySize=auto;html=1;exitX=0;exitY=0.5;exitDx=0;exitDy=0;entryX=0.5;entryY=0;entryDx=0;entryDy=0;" parent="1" source="XQDPp6GBqCCkRfI6v3cZ-6" target="lRWClCMstVf7WPKX0AIL-15" edge="1">
          <mxGeometry relative="1" as="geometry" />
        </mxCell>
        <mxCell id="XQDPp6GBqCCkRfI6v3cZ-6" value="elif Opt == &quot;4&quot;:" style="rhombus;whiteSpace=wrap;html=1;" parent="1" vertex="1">
          <mxGeometry x="405" y="570" width="170" height="80" as="geometry" />
        </mxCell>
        <mxCell id="WHeVGBCGnXkhvYLiNTyB-4" style="edgeStyle=orthogonalEdgeStyle;rounded=0;orthogonalLoop=1;jettySize=auto;html=1;exitX=0;exitY=0.5;exitDx=0;exitDy=0;entryX=0.5;entryY=0;entryDx=0;entryDy=0;" edge="1" parent="1" source="XQDPp6GBqCCkRfI6v3cZ-7" target="lRWClCMstVf7WPKX0AIL-17">
          <mxGeometry relative="1" as="geometry" />
        </mxCell>
        <mxCell id="WHeVGBCGnXkhvYLiNTyB-5" style="edgeStyle=orthogonalEdgeStyle;rounded=0;orthogonalLoop=1;jettySize=auto;html=1;exitX=1;exitY=0.5;exitDx=0;exitDy=0;entryX=0.5;entryY=0;entryDx=0;entryDy=0;" edge="1" parent="1" source="XQDPp6GBqCCkRfI6v3cZ-7" target="lRWClCMstVf7WPKX0AIL-18">
          <mxGeometry relative="1" as="geometry" />
        </mxCell>
        <mxCell id="XQDPp6GBqCCkRfI6v3cZ-7" value="elif Opt == &quot;5&quot;:" style="rhombus;whiteSpace=wrap;html=1;" parent="1" vertex="1">
          <mxGeometry x="520" y="660" width="170" height="80" as="geometry" />
        </mxCell>
        <mxCell id="XQDPp6GBqCCkRfI6v3cZ-21" value="&lt;span style=&quot;color: rgb(0, 0, 0); font-family: Helvetica; font-size: 12px; font-style: normal; font-variant-ligatures: normal; font-variant-caps: normal; font-weight: 400; letter-spacing: normal; orphans: 2; text-indent: 0px; text-transform: none; widows: 2; word-spacing: 0px; -webkit-text-stroke-width: 0px; background-color: rgb(251, 251, 251); text-decoration-thickness: initial; text-decoration-style: initial; text-decoration-color: initial; float: none; display: inline !important;&quot;&gt;True&lt;/span&gt;" style="text;whiteSpace=wrap;html=1;align=center;" parent="1" vertex="1">
          <mxGeometry x="40" y="250" width="60" height="40" as="geometry" />
        </mxCell>
        <mxCell id="XQDPp6GBqCCkRfI6v3cZ-23" value="&lt;span style=&quot;color: rgb(0, 0, 0); font-family: Helvetica; font-size: 12px; font-style: normal; font-variant-ligatures: normal; font-variant-caps: normal; font-weight: 400; letter-spacing: normal; orphans: 2; text-align: center; text-indent: 0px; text-transform: none; widows: 2; word-spacing: 0px; -webkit-text-stroke-width: 0px; background-color: rgb(251, 251, 251); text-decoration-thickness: initial; text-decoration-style: initial; text-decoration-color: initial; float: none; display: inline !important;&quot;&gt;True&lt;/span&gt;" style="text;whiteSpace=wrap;html=1;" parent="1" vertex="1">
          <mxGeometry x="225" y="510" width="60" height="40" as="geometry" />
        </mxCell>
        <mxCell id="XQDPp6GBqCCkRfI6v3cZ-24" value="&lt;span style=&quot;color: rgb(0, 0, 0); font-family: Helvetica; font-size: 12px; font-style: normal; font-variant-ligatures: normal; font-variant-caps: normal; font-weight: 400; letter-spacing: normal; orphans: 2; text-align: center; text-indent: 0px; text-transform: none; widows: 2; word-spacing: 0px; -webkit-text-stroke-width: 0px; background-color: rgb(251, 251, 251); text-decoration-thickness: initial; text-decoration-style: initial; text-decoration-color: initial; float: none; display: inline !important;&quot;&gt;True&lt;/span&gt;" style="text;whiteSpace=wrap;html=1;" parent="1" vertex="1">
          <mxGeometry x="335" y="620" width="60" height="40" as="geometry" />
        </mxCell>
        <mxCell id="XQDPp6GBqCCkRfI6v3cZ-26" value="&lt;div style=&quot;text-align: center;&quot;&gt;&lt;span style=&quot;background-color: initial;&quot;&gt;False&lt;/span&gt;&lt;/div&gt;" style="text;whiteSpace=wrap;html=1;" parent="1" vertex="1">
          <mxGeometry x="370" y="170" width="60" height="40" as="geometry" />
        </mxCell>
        <mxCell id="XQDPp6GBqCCkRfI6v3cZ-27" value="&lt;div style=&quot;text-align: center;&quot;&gt;&lt;span style=&quot;background-color: initial;&quot;&gt;False&lt;/span&gt;&lt;/div&gt;" style="text;whiteSpace=wrap;html=1;" parent="1" vertex="1">
          <mxGeometry x="245" y="250" width="60" height="40" as="geometry" />
        </mxCell>
        <mxCell id="XQDPp6GBqCCkRfI6v3cZ-28" value="&lt;div style=&quot;text-align: center;&quot;&gt;&lt;span style=&quot;background-color: initial;&quot;&gt;False&lt;/span&gt;&lt;/div&gt;" style="text;whiteSpace=wrap;html=1;" parent="1" vertex="1">
          <mxGeometry x="345" y="370" width="60" height="40" as="geometry" />
        </mxCell>
        <mxCell id="XQDPp6GBqCCkRfI6v3cZ-29" value="&lt;div style=&quot;text-align: center;&quot;&gt;&lt;span style=&quot;background-color: initial;&quot;&gt;False&lt;/span&gt;&lt;/div&gt;" style="text;whiteSpace=wrap;html=1;" parent="1" vertex="1">
          <mxGeometry x="450" y="520" width="60" height="40" as="geometry" />
        </mxCell>
        <mxCell id="XQDPp6GBqCCkRfI6v3cZ-30" value="&lt;div style=&quot;text-align: center;&quot;&gt;&lt;span style=&quot;background-color: initial;&quot;&gt;False&lt;/span&gt;&lt;/div&gt;" style="text;whiteSpace=wrap;html=1;" parent="1" vertex="1">
          <mxGeometry x="620" y="620" width="60" height="40" as="geometry" />
        </mxCell>
        <mxCell id="XQDPp6GBqCCkRfI6v3cZ-31" value="&lt;div style=&quot;text-align: center;&quot;&gt;&lt;span style=&quot;background-color: initial;&quot;&gt;False&lt;/span&gt;&lt;/div&gt;" style="text;whiteSpace=wrap;html=1;" parent="1" vertex="1">
          <mxGeometry x="700" y="670" width="60" height="40" as="geometry" />
        </mxCell>
        <mxCell id="UVfGVoTlfthyFdkSEK8p-16" style="edgeStyle=orthogonalEdgeStyle;rounded=0;orthogonalLoop=1;jettySize=auto;html=1;exitX=0.5;exitY=1;exitDx=0;exitDy=0;entryX=0.5;entryY=0;entryDx=0;entryDy=0;" parent="1" source="UVfGVoTlfthyFdkSEK8p-12" target="XQDPp6GBqCCkRfI6v3cZ-1" edge="1">
          <mxGeometry relative="1" as="geometry" />
        </mxCell>
        <mxCell id="UVfGVoTlfthyFdkSEK8p-12" value="digit = main.isDigit(Opt)" style="rounded=1;whiteSpace=wrap;html=1;" parent="1" vertex="1">
          <mxGeometry x="225" y="70" width="120" height="60" as="geometry" />
        </mxCell>
        <mxCell id="d2vg4HKp562m2X5roHTL-3" style="edgeStyle=orthogonalEdgeStyle;rounded=0;orthogonalLoop=1;jettySize=auto;html=1;exitX=0;exitY=0.5;exitDx=0;exitDy=0;entryX=0.5;entryY=0;entryDx=0;entryDy=0;" parent="1" source="UVfGVoTlfthyFdkSEK8p-17" target="SzrBUzbX8Fu_cRYEtcBO-1" edge="1">
          <mxGeometry relative="1" as="geometry" />
        </mxCell>
        <mxCell id="d2vg4HKp562m2X5roHTL-7" style="edgeStyle=orthogonalEdgeStyle;rounded=0;orthogonalLoop=1;jettySize=auto;html=1;exitX=1;exitY=0.5;exitDx=0;exitDy=0;entryX=0.5;entryY=0;entryDx=0;entryDy=0;" parent="1" source="UVfGVoTlfthyFdkSEK8p-17" target="d2vg4HKp562m2X5roHTL-6" edge="1">
          <mxGeometry relative="1" as="geometry" />
        </mxCell>
        <mxCell id="UVfGVoTlfthyFdkSEK8p-17" value="if Opt == &quot;Q&quot;:" style="rhombus;whiteSpace=wrap;html=1;" parent="1" vertex="1">
          <mxGeometry x="589" y="210" width="170" height="80" as="geometry" />
        </mxCell>
        <mxCell id="SzrBUzbX8Fu_cRYEtcBO-4" style="edgeStyle=orthogonalEdgeStyle;rounded=0;orthogonalLoop=1;jettySize=auto;html=1;exitX=0.5;exitY=1;exitDx=0;exitDy=0;entryX=0.5;entryY=0;entryDx=0;entryDy=0;" parent="1" source="SzrBUzbX8Fu_cRYEtcBO-1" target="SzrBUzbX8Fu_cRYEtcBO-3" edge="1">
          <mxGeometry relative="1" as="geometry" />
        </mxCell>
        <mxCell id="SzrBUzbX8Fu_cRYEtcBO-1" value="PRINT&lt;br&gt;&quot;Successfully Quit&quot;" style="shape=parallelogram;perimeter=parallelogramPerimeter;whiteSpace=wrap;html=1;fixedSize=1;" parent="1" vertex="1">
          <mxGeometry x="414" y="290" width="230" height="80" as="geometry" />
        </mxCell>
        <mxCell id="zAQkPUMZ2etP7mfMLIDu-22" style="edgeStyle=orthogonalEdgeStyle;rounded=0;orthogonalLoop=1;jettySize=auto;html=1;exitX=0.5;exitY=1;exitDx=0;exitDy=0;entryX=0;entryY=0.5;entryDx=0;entryDy=0;" parent="1" source="SzrBUzbX8Fu_cRYEtcBO-3" target="zAQkPUMZ2etP7mfMLIDu-21" edge="1">
          <mxGeometry relative="1" as="geometry" />
        </mxCell>
        <mxCell id="SzrBUzbX8Fu_cRYEtcBO-3" value="loop = False" style="rounded=1;whiteSpace=wrap;html=1;" parent="1" vertex="1">
          <mxGeometry x="469" y="410" width="120" height="60" as="geometry" />
        </mxCell>
        <mxCell id="d2vg4HKp562m2X5roHTL-4" value="True" style="text;html=1;strokeColor=none;fillColor=none;align=center;verticalAlign=middle;whiteSpace=wrap;rounded=0;" parent="1" vertex="1">
          <mxGeometry x="535" y="220" width="60" height="30" as="geometry" />
        </mxCell>
        <mxCell id="d2vg4HKp562m2X5roHTL-5" value="&lt;div style=&quot;text-align: center;&quot;&gt;&lt;span style=&quot;background-color: initial;&quot;&gt;False&lt;/span&gt;&lt;/div&gt;" style="text;whiteSpace=wrap;html=1;" parent="1" vertex="1">
          <mxGeometry x="755" y="220" width="60" height="40" as="geometry" />
        </mxCell>
        <mxCell id="WHeVGBCGnXkhvYLiNTyB-11" style="edgeStyle=orthogonalEdgeStyle;rounded=0;orthogonalLoop=1;jettySize=auto;html=1;exitX=0.5;exitY=1;exitDx=0;exitDy=0;entryX=0.5;entryY=0;entryDx=0;entryDy=0;" edge="1" parent="1" source="d2vg4HKp562m2X5roHTL-6" target="zAQkPUMZ2etP7mfMLIDu-21">
          <mxGeometry relative="1" as="geometry" />
        </mxCell>
        <mxCell id="d2vg4HKp562m2X5roHTL-6" value="PRINT&lt;br&gt;&quot;Invalid Input, Pls Try Again&quot;" style="shape=parallelogram;perimeter=parallelogramPerimeter;whiteSpace=wrap;html=1;fixedSize=1;" parent="1" vertex="1">
          <mxGeometry x="675" y="290" width="250" height="80" as="geometry" />
        </mxCell>
        <mxCell id="zAQkPUMZ2etP7mfMLIDu-9" style="edgeStyle=orthogonalEdgeStyle;rounded=0;orthogonalLoop=1;jettySize=auto;html=1;exitX=0.5;exitY=1;exitDx=0;exitDy=0;entryX=1;entryY=0.5;entryDx=0;entryDy=0;" parent="1" source="zAQkPUMZ2etP7mfMLIDu-3" target="zAQkPUMZ2etP7mfMLIDu-6" edge="1">
          <mxGeometry relative="1" as="geometry" />
        </mxCell>
        <mxCell id="zAQkPUMZ2etP7mfMLIDu-3" value="" style="ellipse;whiteSpace=wrap;html=1;aspect=fixed;" parent="1" vertex="1">
          <mxGeometry x="595" y="870" width="20" height="20" as="geometry" />
        </mxCell>
        <mxCell id="zAQkPUMZ2etP7mfMLIDu-14" style="edgeStyle=orthogonalEdgeStyle;rounded=0;orthogonalLoop=1;jettySize=auto;html=1;exitX=0.5;exitY=1;exitDx=0;exitDy=0;entryX=1;entryY=0.5;entryDx=0;entryDy=0;" parent="1" source="zAQkPUMZ2etP7mfMLIDu-6" target="zAQkPUMZ2etP7mfMLIDu-11" edge="1">
          <mxGeometry relative="1" as="geometry" />
        </mxCell>
        <mxCell id="zAQkPUMZ2etP7mfMLIDu-6" value="" style="ellipse;whiteSpace=wrap;html=1;aspect=fixed;" parent="1" vertex="1">
          <mxGeometry x="355" y="920" width="20" height="20" as="geometry" />
        </mxCell>
        <mxCell id="zAQkPUMZ2etP7mfMLIDu-16" style="edgeStyle=orthogonalEdgeStyle;rounded=0;orthogonalLoop=1;jettySize=auto;html=1;exitX=0.5;exitY=1;exitDx=0;exitDy=0;entryX=1;entryY=0.5;entryDx=0;entryDy=0;" parent="1" source="zAQkPUMZ2etP7mfMLIDu-11" target="zAQkPUMZ2etP7mfMLIDu-15" edge="1">
          <mxGeometry relative="1" as="geometry" />
        </mxCell>
        <mxCell id="zAQkPUMZ2etP7mfMLIDu-11" value="" style="ellipse;whiteSpace=wrap;html=1;aspect=fixed;" parent="1" vertex="1">
          <mxGeometry x="225" y="950" width="20" height="20" as="geometry" />
        </mxCell>
        <mxCell id="zAQkPUMZ2etP7mfMLIDu-19" style="edgeStyle=orthogonalEdgeStyle;rounded=0;orthogonalLoop=1;jettySize=auto;html=1;exitX=0.5;exitY=1;exitDx=0;exitDy=0;entryX=1;entryY=0.5;entryDx=0;entryDy=0;" parent="1" source="zAQkPUMZ2etP7mfMLIDu-15" target="zAQkPUMZ2etP7mfMLIDu-18" edge="1">
          <mxGeometry relative="1" as="geometry" />
        </mxCell>
        <mxCell id="zAQkPUMZ2etP7mfMLIDu-29" style="edgeStyle=orthogonalEdgeStyle;rounded=0;orthogonalLoop=1;jettySize=auto;html=1;exitX=0.5;exitY=1;exitDx=0;exitDy=0;entryX=0;entryY=0.5;entryDx=0;entryDy=0;" parent="1" source="zAQkPUMZ2etP7mfMLIDu-18" target="zAQkPUMZ2etP7mfMLIDu-28" edge="1">
          <mxGeometry relative="1" as="geometry" />
        </mxCell>
        <mxCell id="zAQkPUMZ2etP7mfMLIDu-18" value="" style="ellipse;whiteSpace=wrap;html=1;aspect=fixed;" parent="1" vertex="1">
          <mxGeometry x="50" y="1030" width="20" height="20" as="geometry" />
        </mxCell>
        <mxCell id="zAQkPUMZ2etP7mfMLIDu-30" style="edgeStyle=orthogonalEdgeStyle;rounded=0;orthogonalLoop=1;jettySize=auto;html=1;exitX=1;exitY=0.5;exitDx=0;exitDy=0;entryX=1;entryY=0.5;entryDx=0;entryDy=0;" parent="1" source="zAQkPUMZ2etP7mfMLIDu-21" target="zAQkPUMZ2etP7mfMLIDu-28" edge="1">
          <mxGeometry relative="1" as="geometry" />
        </mxCell>
        <mxCell id="zAQkPUMZ2etP7mfMLIDu-21" value="" style="ellipse;whiteSpace=wrap;html=1;aspect=fixed;" parent="1" vertex="1">
          <mxGeometry x="785" y="490" width="30" height="30" as="geometry" />
        </mxCell>
        <mxCell id="WHeVGBCGnXkhvYLiNTyB-13" style="edgeStyle=orthogonalEdgeStyle;rounded=0;orthogonalLoop=1;jettySize=auto;html=1;exitX=0.5;exitY=1;exitDx=0;exitDy=0;entryX=0.5;entryY=0;entryDx=0;entryDy=0;" edge="1" parent="1" source="zAQkPUMZ2etP7mfMLIDu-28" target="WHeVGBCGnXkhvYLiNTyB-12">
          <mxGeometry relative="1" as="geometry" />
        </mxCell>
        <mxCell id="zAQkPUMZ2etP7mfMLIDu-28" value="" style="ellipse;whiteSpace=wrap;html=1;aspect=fixed;" parent="1" vertex="1">
          <mxGeometry x="360" y="1070" width="20" height="20" as="geometry" />
        </mxCell>
        <mxCell id="XQDPp6GBqCCkRfI6v3cZ-22" value="&lt;span style=&quot;color: rgb(0, 0, 0); font-family: Helvetica; font-size: 12px; font-style: normal; font-variant-ligatures: normal; font-variant-caps: normal; font-weight: 400; letter-spacing: normal; orphans: 2; text-align: center; text-indent: 0px; text-transform: none; widows: 2; word-spacing: 0px; -webkit-text-stroke-width: 0px; background-color: rgb(251, 251, 251); text-decoration-thickness: initial; text-decoration-style: initial; text-decoration-color: initial; float: none; display: inline !important;&quot;&gt;True&lt;/span&gt;" style="text;whiteSpace=wrap;html=1;" parent="1" vertex="1">
          <mxGeometry x="130" y="370" width="60" height="40" as="geometry" />
        </mxCell>
        <mxCell id="XQDPp6GBqCCkRfI6v3cZ-25" value="&lt;span style=&quot;color: rgb(0, 0, 0); font-family: Helvetica; font-size: 12px; font-style: normal; font-variant-ligatures: normal; font-variant-caps: normal; font-weight: 400; letter-spacing: normal; orphans: 2; text-align: center; text-indent: 0px; text-transform: none; widows: 2; word-spacing: 0px; -webkit-text-stroke-width: 0px; background-color: rgb(251, 251, 251); text-decoration-thickness: initial; text-decoration-style: initial; text-decoration-color: initial; float: none; display: inline !important;&quot;&gt;True&lt;/span&gt;" style="text;whiteSpace=wrap;html=1;" parent="1" vertex="1">
          <mxGeometry x="485" y="670" width="60" height="40" as="geometry" />
        </mxCell>
        <mxCell id="WHeVGBCGnXkhvYLiNTyB-6" value="" style="edgeStyle=orthogonalEdgeStyle;rounded=0;orthogonalLoop=1;jettySize=auto;html=1;exitX=0.25;exitY=1;exitDx=0;exitDy=0;" edge="1" parent="1" source="lRWClCMstVf7WPKX0AIL-11" target="zAQkPUMZ2etP7mfMLIDu-15">
          <mxGeometry relative="1" as="geometry">
            <mxPoint x="130.00000000000023" y="1140" as="targetPoint" />
            <mxPoint x="130" y="480" as="sourcePoint" />
          </mxGeometry>
        </mxCell>
        <mxCell id="zAQkPUMZ2etP7mfMLIDu-15" value="" style="ellipse;whiteSpace=wrap;html=1;aspect=fixed;" parent="1" vertex="1">
          <mxGeometry x="120" y="990" width="20" height="20" as="geometry" />
        </mxCell>
        <mxCell id="WHeVGBCGnXkhvYLiNTyB-12" value="&lt;font style=&quot;font-size: 36px;&quot;&gt;2&lt;/font&gt;" style="shape=offPageConnector;whiteSpace=wrap;html=1;" vertex="1" parent="1">
          <mxGeometry x="345" y="1109" width="50" height="60" as="geometry" />
        </mxCell>
        <mxCell id="WHeVGBCGnXkhvYLiNTyB-15" style="edgeStyle=orthogonalEdgeStyle;rounded=0;orthogonalLoop=1;jettySize=auto;html=1;exitX=0.5;exitY=1;exitDx=0;exitDy=0;entryX=0.5;entryY=0;entryDx=0;entryDy=0;" edge="1" parent="1" source="WHeVGBCGnXkhvYLiNTyB-14" target="UVfGVoTlfthyFdkSEK8p-12">
          <mxGeometry relative="1" as="geometry" />
        </mxCell>
        <mxCell id="WHeVGBCGnXkhvYLiNTyB-14" value="&lt;font style=&quot;font-size: 36px;&quot;&gt;1&lt;/font&gt;" style="shape=offPageConnector;whiteSpace=wrap;html=1;" vertex="1" parent="1">
          <mxGeometry x="260" y="-10" width="50" height="60" as="geometry" />
        </mxCell>
      </root>
    </mxGraphModel>
  </diagram>
</mxfile>
